<svg width="16" height="16" viewBox="0 0 16 16" fill="none" xmlns="http://www.w3.org/2000/svg">
<path fill-rule="evenodd" clip-rule="evenodd" d="M6 1.99999C4.93913 1.99999 3.92172 2.42142 3.17157 3.17156C2.42143 3.92171 2 4.93912 2 5.99999C2 7.06085 2.42143 8.07827 3.17157 8.82842C3.92172 9.57856 4.93913 9.99999 6 9.99999C7.06086 9.99999 8.07828 9.57856 8.82843 8.82842C9.57857 8.07827 10 7.06085 10 5.99999C10 4.93912 9.57857 3.92171 8.82843 3.17156C8.07828 2.42142 7.06086 1.99999 6 1.99999ZM1.13461e-07 5.99999C-0.00012039 5.05569 0.222642 4.1247 0.650171 3.28273C1.0777 2.44076 1.69792 1.71159 2.4604 1.15451C3.22287 0.597441 4.10606 0.2282 5.03815 0.0768211C5.97023 -0.074558 6.92488 -0.00380069 7.82446 0.283338C8.72404 0.570477 9.54315 1.06589 10.2152 1.72928C10.8872 2.39268 11.3931 3.20532 11.6919 4.10112C11.9906 4.99692 12.0737 5.95058 11.9343 6.88454C11.795 7.8185 11.4372 8.70639 10.89 9.47599L15.707 14.293C15.8892 14.4816 15.99 14.7342 15.9877 14.9964C15.9854 15.2586 15.8802 15.5094 15.6948 15.6948C15.5094 15.8802 15.2586 15.9854 14.9964 15.9877C14.7342 15.9899 14.4816 15.8891 14.293 15.707L9.477 10.891C8.57936 11.5293 7.52335 11.9081 6.42467 11.9861C5.326 12.0641 4.22707 11.8381 3.2483 11.333C2.26953 10.8278 1.44869 10.063 0.875723 9.12234C0.30276 8.18166 -0.000214051 7.10142 1.13461e-07 5.99999Z" fill="#727477"/>
</svg>
